<svg width="154" height="154" viewBox="0 0 154 154" fill="none" xmlns="http://www.w3.org/2000/svg">
<path d="M68.2748 6.83519C70.8245 -1.8835 83.1755 -1.88351 85.7252 6.83517L98.2305 49.5959C99.1008 52.572 101.428 54.8992 104.404 55.7695L147.165 68.2748C155.883 70.8245 155.884 83.1755 147.165 85.7252L104.404 98.2305C101.428 99.1008 99.1008 101.428 98.2305 104.404L85.7252 147.165C83.1755 155.883 70.8245 155.884 68.2748 147.165L55.7695 104.404C54.8992 101.428 52.572 99.1008 49.5959 98.2305L6.83519 85.7252C-1.8835 83.1755 -1.88351 70.8245 6.83517 68.2748L49.5959 55.7695C52.572 54.8992 54.8992 52.572 55.7695 49.5959L68.2748 6.83519Z" fill="white"/>
</svg>
